/vscmnt/brussel_pixiu_data/_data_brussel/112/vsc11236/PredSimResults/SUBJ11opt3D/expIG/worker_06.mot
version=1
nRows=11
nColumns=50
inDegrees=yes
endheader
                time	         pelvis_tilt	         pelvis_list	     pelvis_rotation	           pelvis_tx	           pelvis_ty	           pelvis_tz	       hip_flexion_r	     hip_adduction_r	      hip_rotation_r	        knee_angle_r	       ankle_angle_r	         mtp_angle_r	       hip_flexion_l	     hip_adduction_l	      hip_rotation_l	        knee_angle_l	       ankle_angle_l	         mtp_angle_l	    lumbar_extension	      lumbar_bending	     lumbar_rotation	 ercspn_r/activation	 intobl_r/activation	 extobl_r/activation	    abd_r/activation	    add_r/activation	hamstrings_r/activation	bifemsh_r/activation	glut_max_r/activation	iliopsoas_r/activation	rect_fem_r/activation	  vasti_r/activation	gastroc_r/activation	 soleus_r/activation	tib_ant_r/activation	 ercspn_l/activation	 intobl_l/activation	 extobl_l/activation	    abd_l/activation	    add_l/activation	hamstrings_l/activation	bifemsh_l/activation	glut_max_l/activation	iliopsoas_l/activation	rect_fem_l/activation	  vasti_l/activation	gastroc_l/activation	 soleus_l/activation	tib_ant_l/activation	
          1.33891371	         -3.13244954	         -0.96890588	          5.30635676	          1.47280508	          0.94124398	         -0.00608335	         31.29876524	         -2.08600132	         -4.45786282	         -9.25218700	          1.84800724	          0.23133928	        -13.89018472	         -2.93310669	         -2.36006963	        -11.26158811	         12.64218319	         28.49302225	        -14.59937257	         -2.04854980	         -3.21767011	          0.03163674	          0.25152046	          0.06469302	          0.00999999	          0.17690233	          0.04492117	          0.16392163	          0.04263797	          0.09661643	          0.04096032	          0.01398011	          0.00999999	          0.00999999	          0.40825006	          0.00999999	          0.00999999	          0.00999999	          0.04096032	          0.00999999	          0.01594449	          0.22635094	          0.02101932	          0.13530460	          0.00999999	          0.00999999	          0.15577360	          0.31148124	          0.01496100	
          1.35230285	         -3.24667878	         -1.01781738	          5.44343699	          1.49109758	          0.93912460	         -0.00504241	         31.11660294	         -1.93374826	         -4.62330644	        -10.38064280	          1.27119042	          0.24275636	        -14.53412749	         -3.17570534	         -2.64523970	        -11.82950780	         11.82838333	         30.27209444	        -14.19483197	         -1.55821584	         -3.43016306	          0.02586493	          0.20563298	          0.05289041	          0.00999999	          0.18751275	          0.03914706	          0.13401571	          0.10824392	          0.07898969	          0.03348750	          0.01142957	          0.01351119	          0.01324199	          0.43287455	          0.02227854	          0.00999999	          0.00999999	          0.03348750	          0.03835056	          0.01837563	          0.18505541	          0.01718455	          0.11061959	          0.00999999	          0.00999999	          0.12735422	          0.29197935	          0.01223151	
          1.36569199	         -3.33799688	         -1.08259032	          5.56188512	          1.50983391	          0.93728339	         -0.00395323	         30.85303574	         -1.80814750	         -4.73408366	        -11.69937561	          0.77583252	          0.21300447	        -15.08093688	         -3.44655832	         -2.94245218	        -12.63051065	         10.87132900	         32.10605772	        -13.75170975	         -1.04177249	         -3.63691645	          0.02713956	          0.16811724	          0.04324107	          0.07227120	          0.20606393	          0.04035252	          0.10956585	          0.12140283	          0.06457879	          0.02737803	          0.00999999	          0.01104620	          0.01082611	          0.50172177	          0.01821403	          0.00999999	          0.00999999	          0.02737803	          0.03135387	          0.01502318	          0.15129384	          0.01404939	          0.11840055	          0.00999999	          0.00999999	          0.10411967	          0.26603776	          0.00999999	
          1.37908112	         -3.40913358	         -1.13339877	          5.64949829	          1.52868227	          0.93594174	         -0.00278765	         30.62105082	         -1.70849521	         -4.91529796	        -13.07519224	          0.10305517	          0.18489243	        -15.41559123	         -3.71502869	         -3.25067758	        -13.81864465	          9.73926974	         34.00039053	        -13.31180815	         -0.53866991	         -3.82929707	          0.03071351	          0.13744588	          0.03535215	          0.10821638	          0.25894081	          0.03772759	          0.08957662	          0.12453657	          0.05279702	          0.02238318	          0.02804943	          0.00999999	          0.00999999	          0.55678538	          0.05321973	          0.00999999	          0.00999999	          0.02238318	          0.03326036	          0.01575602	          0.12369174	          0.01161828	          0.09679952	          0.00999999	          0.00999999	          0.08512405	          0.23897899	          0.00999999	
          1.39247026	         -3.45954405	         -1.17279958	          5.71009004	          1.54746802	          0.93520539	         -0.00155243	         30.48206968	         -1.62925378	         -5.13503596	        -14.66437002	         -0.40670990	          0.13614437	        -15.45594665	         -3.98888416	         -3.56193885	        -15.51315043	          8.43632166	         35.90588345	        -12.89201351	         -0.04849942	         -4.00638712	          0.03633385	          0.11237021	          0.02890249	          0.13647083	          0.30058522	          0.04358626	          0.07323423	          0.12445986	          0.04316471	          0.01829958	          0.08167245	          0.00999999	          0.00999999	          0.58242691	          0.07802972	          0.00999999	          0.00999999	          0.01829958	          0.09832915	          0.01288149	          0.10112538	          0.00999999	          0.07913939	          0.00999999	          0.00999999	          0.06959399	          0.19857735	          0.00999999	
          1.40585940	         -3.49073442	         -1.19756260	          5.74250060	          1.56606906	          0.93516843	         -0.00027083	         30.35914769	         -1.55839259	         -5.34030254	        -16.35727352	         -0.56666696	          0.08395374	        -15.12427054	         -4.26669975	         -3.88167216	        -17.82855002	          6.97611047	         37.69020885	        -12.50084064	          0.42478037	         -4.16377775	          0.02970509	          0.09186935	          0.02362951	          0.15524617	          0.32787188	          0.04458590	          0.05987336	          0.14060126	          0.03528973	          0.01496100	          0.12102136	          0.00999999	          0.00999999	          0.56991675	          0.10255179	          0.00999999	          0.00999999	          0.01496100	          0.15908890	          0.01569698	          0.08267604	          0.00999999	          0.06470117	          0.00999999	          0.00999999	          0.05689724	          0.16234883	          0.00999999	
          1.41924853	         -3.50475137	         -1.20841480	          5.74411466	          1.58433238	          0.93589939	          0.00102271	         30.18555256	         -1.48170700	         -5.49314136	        -18.03314943	         -0.31334460	          0.04281767	        -14.35350711	         -4.55157242	         -4.22845875	        -20.84936445	          5.37665096	         39.13332443	        -12.15064478	          0.88423579	         -4.29519398	          0.02428569	          0.07510868	          0.01931854	          0.16364263	          0.34614210	          0.04610294	          0.04895004	          0.14212947	          0.02885146	          0.01223151	          0.13922479	          0.00999999	          0.00999999	          0.51658903	          0.11571371	          0.00999999	          0.00999999	          0.01223151	          0.19776136	          0.03154872	          0.06759260	          0.00999999	          0.05289707	          0.00999999	          0.00999999	          0.04651689	          0.13272986	          0.00999999	
          1.43263767	         -3.50272545	         -1.19793936	          5.71292919	          1.60216825	          0.93736524	          0.00229228	         29.90850997	         -1.39774099	         -5.57156652	        -19.57972319	          0.30368797	          0.05246378	        -13.11577295	         -4.84604697	         -4.63820144	        -24.62756096	          3.82081116	         39.66253959	        -11.84759064	          1.32458082	         -4.39679245	          0.01985500	          0.06140583	          0.01579406	          0.16843262	          0.34629546	          0.05108962	          0.04001958	          0.12823583	          0.02358779	          0.00999999	          0.17431856	          0.00999999	          0.00999999	          0.43278079	          0.11716369	          0.00999999	          0.00999999	          0.00999999	          0.23708161	          0.03735844	          0.05526098	          0.00999999	          0.04324651	          0.00999999	          0.00999999	          0.03803033	          0.10851458	          0.00999999	
          1.44602681	         -3.48701118	         -1.15229534	          5.64286438	          1.61953596	          0.93954281	          0.00350216	         29.43960906	         -1.31022798	         -5.56575848	        -20.81380197	          1.17259456	          0.19301669	        -11.42048199	         -5.14921146	         -5.10959168	        -29.10193811	          2.20132786	         39.19118264	        -11.59392597	          1.73403936	         -4.46277603	          0.01623265	          0.05020293	          0.01291259	          0.16017903	          0.31957778	          0.05516756	          0.03271840	          0.10484045	          0.01928443	          0.00999999	          0.21808153	          0.00999999	          0.00999999	          0.35382415	          0.09993979	          0.00999999	          0.02689786	          0.00999999	          0.28583875	          0.03634408	          0.05382510	          0.00999999	          0.03535660	          0.00999999	          0.00999999	          0.03109207	          0.08871715	          0.00999999	
          1.45941595	         -3.46127237	         -1.05387907	          5.52502176	          1.63638735	          0.94240262	          0.00462883	         28.70832235	         -1.23381425	         -5.48742324	        -21.55837317	          2.04146084	          0.45703739	         -9.31902578	         -5.45148874	         -5.63013636	        -34.07778506	          0.28827343	         37.85122915	        -11.39684198	          2.09550329	         -4.48971121	          0.01327116	          0.04104389	          0.01055681	          0.13557892	          0.27029451	          0.05902768	          0.02674924	          0.08571332	          0.01576617	          0.00999999	          0.24516010	          0.00999999	          0.00999999	          0.29613640	          0.08170674	          0.01915954	          0.05945759	          0.00999999	          0.30327444	          0.02971345	          0.06295042	          0.00999999	          0.02890613	          0.00999999	          0.00999999	          0.02541962	          0.07253156	          0.00999999	
          1.47280508	         -3.42814595	         -0.89014023	          5.35676309	          1.65267681	          0.94583707	          0.00568238	         27.73482114	         -1.18792975	         -5.34410108	        -21.82329345	          2.81621765	          0.79835300	         -6.89458537	         -5.74482534	         -6.14967313	        -39.32720492	         -1.91463261	         35.51905170	        -11.26615101	          2.39029526	         -4.48200776	          0.01084996	          0.03355583	          0.00999999	          0.11299021	          0.22098190	          0.05454443	          0.02186910	          0.07007576	          0.01288978	          0.00999999	          0.24690499	          0.00999999	          0.00999999	          0.25628653	          0.09817822	          0.05227005	          0.10279588	          0.00999999	          0.24794496	          0.02429252	          0.05902839	          0.00999999	          0.02363249	          0.00999999	          0.00999999	          0.02078206	          0.05929888	          0.05039899	
